<svg xmlns="http://www.w3.org/2000/svg" width="74.06" height="44.77" viewBox="0 0 74.06 44.77">
  <title>drink-prev-arrow</title>
  <g id="77a44575-e058-44c6-a2b1-547d2a44d210" data-name="圖層 2">
    <g id="b55bc2ab-5462-4964-b3dd-74e05764d15b" data-name="design">
      <g>
        <g>
          <path d="M26.19,17.83a4.61,4.61,0,0,1,.12.71,8.77,8.77,0,0,1,.08,1.09,1.32,1.32,0,0,1,0,.27l-.07,0-.49,0h-.09a3.48,3.48,0,0,0-.6-1.22,1.6,1.6,0,0,0-1.22-.55,1.54,1.54,0,0,0-1.06.35,1.12,1.12,0,0,0-.4.87,1.21,1.21,0,0,0,.39.85,4,4,0,0,0,1.63.77,7.73,7.73,0,0,1,1,.39,2.93,2.93,0,0,1,.9.6,2.52,2.52,0,0,1,.56.81,2.81,2.81,0,0,1,.15,1A3.48,3.48,0,0,1,26.85,25a1.89,1.89,0,0,1-.42.62,3.62,3.62,0,0,1-.64.48,2.84,2.84,0,0,1-.89.4,4.35,4.35,0,0,1-1.19.13,6,6,0,0,1-1.14-.14l-.82-.24a1.26,1.26,0,0,1-.43-.17.31.31,0,0,1-.06-.13v-.07c0-.05,0-.37,0-.94,0-.3,0-.51,0-.63V24h.64c.22.5.36.81.42.92a2.21,2.21,0,0,0,.47.56,1.72,1.72,0,0,0,.61.34,2.15,2.15,0,0,0,.77.13,2.28,2.28,0,0,0,.81-.16,1.45,1.45,0,0,0,.72-.51,1.19,1.19,0,0,0-.21-1.71,5.16,5.16,0,0,0-1.54-.71,7.26,7.26,0,0,1-1.74-.8,2.35,2.35,0,0,1-.77-.93A2.54,2.54,0,0,1,21.11,20a2.49,2.49,0,0,1,.78-1.85,3.14,3.14,0,0,1,2.3-.76,5.9,5.9,0,0,1,1,.12A7.2,7.2,0,0,1,26.19,17.83Z"/>
          <path d="M33.41,24.7l.16.09a.58.58,0,0,1,.25.17,2.13,2.13,0,0,1-.89,1.18,3.06,3.06,0,0,1-1.8.5,3.45,3.45,0,0,1-1.35-.29,2.77,2.77,0,0,1-1.07-.76,2.42,2.42,0,0,1-.46-.89,3.36,3.36,0,0,1-.15-.89,3.12,3.12,0,0,1,.19-1,3,3,0,0,1,.64-1.06,3.17,3.17,0,0,1,1.14-.8,4,4,0,0,1,1.55-.29,2.67,2.67,0,0,1,1.64.37,1,1,0,0,1,.47.74.8.8,0,0,1-.19.57.66.66,0,0,1-.52.21.85.85,0,0,1-.51-.19,1.28,1.28,0,0,1-.39-.62,1.1,1.1,0,0,0-.32-.46.78.78,0,0,0-.46-.14,1.55,1.55,0,0,0-1.15.56,2.14,2.14,0,0,0-.5,1.5A2.54,2.54,0,0,0,30.31,25a1.85,1.85,0,0,0,1.4.67,2.62,2.62,0,0,0,.67-.08,2.88,2.88,0,0,0,.46-.27,3.23,3.23,0,0,0,.28-.3Z"/>
          <path d="M34.39,26.14a.45.45,0,0,1,.23-.11,2.09,2.09,0,0,0,.66-.27,5.34,5.34,0,0,0,.06-1.11c0-1.15,0-1.93-.07-2.33a.29.29,0,0,0-.11-.19,1.83,1.83,0,0,0-.47-.16.19.19,0,0,1-.16-.15l0-.25a2.19,2.19,0,0,0,.91-.35,2.3,2.3,0,0,0,.62-.56,1.42,1.42,0,0,1,.19-.24l.48,0a1.48,1.48,0,0,1,0,.26v.19c0,.16,0,.29,0,.39s0,.24,0,.57a4.89,4.89,0,0,1,.41-.64,4.81,4.81,0,0,1,.36-.34.9.9,0,0,1,1.15.08.74.74,0,0,1,.27.57.92.92,0,0,1-.2.57.62.62,0,0,1-.54.26,1,1,0,0,1-.61-.25.57.57,0,0,0-.31-.15h-.05a.54.54,0,0,0-.26.26,1.51,1.51,0,0,0-.19.71v.18c0,.34,0,1.13,0,2.37a.72.72,0,0,0,.13.34.67.67,0,0,0,.25.13,2.09,2.09,0,0,0,.44.07.84.84,0,0,1,.38.09.26.26,0,0,1,.07.19,1,1,0,0,1,0,.2h-.65l-1.3-.06a8.28,8.28,0,0,0-.9,0H35.1l-.71,0a.67.67,0,0,1,0-.17A.69.69,0,0,1,34.39,26.14Z"/>
          <path d="M45,21.5a2.78,2.78,0,0,1,.66,1,2.87,2.87,0,0,1,.21,1A3.28,3.28,0,0,1,45.58,25a2.79,2.79,0,0,1-1.14,1.25,3.36,3.36,0,0,1-1.67.4A3.25,3.25,0,0,1,41,26.17a2.89,2.89,0,0,1-1.06-1.09,3.27,3.27,0,0,1-.32-1.51,3,3,0,0,1,.15-.92,2.62,2.62,0,0,1,.41-.8,3.18,3.18,0,0,1,.58-.58,3.49,3.49,0,0,1,.92-.47,4,4,0,0,1,1.12-.14A2.92,2.92,0,0,1,45,21.5Zm-3.73,2.37c0,.56.07.89.08,1a2.71,2.71,0,0,0,.28.79,1.12,1.12,0,0,0,.44.38,1.46,1.46,0,0,0,.71.16,1.13,1.13,0,0,0,.84-.32,1.85,1.85,0,0,0,.5-1,8.26,8.26,0,0,0,.09-1.46,2.9,2.9,0,0,0-.41-1.76,1.29,1.29,0,0,0-1.08-.52,1.28,1.28,0,0,0-.87.3,1.54,1.54,0,0,0-.48.86A9.28,9.28,0,0,0,41.26,23.87Z"/>
          <path d="M46.41,26.18a.86.86,0,0,1,.4-.13c.32,0,.5-.08.54-.14a1.32,1.32,0,0,0,.14-.73V21.42l0-1.58v-.27a2.84,2.84,0,0,0-.09-.83,1,1,0,0,0-.51-.14,1,1,0,0,1-.31,0,1.29,1.29,0,0,1,0-.25.53.53,0,0,1,0-.12,4.48,4.48,0,0,0,1.12-.28,3.67,3.67,0,0,0,.89-.44h.36c0,1.58,0,2.66,0,3.24,0,.17,0,.31,0,.42v3.19l0,1v.16a.73.73,0,0,0,.09.42.53.53,0,0,0,.35.11l.56.07a1.24,1.24,0,0,1,0,.23,1.76,1.76,0,0,1,0,.19l-.54,0c-.3,0-.68,0-1.13,0h-.26c-.26,0-.63,0-1.12.06h-.5Z"/>
          <path d="M50.05,26.18a.9.9,0,0,1,.4-.13c.32,0,.5-.08.55-.14a1.34,1.34,0,0,0,.13-.73V19.57a2.84,2.84,0,0,0-.09-.83,1.07,1.07,0,0,0-.52-.14,1.06,1.06,0,0,1-.31,0c0-.11,0-.19,0-.25a.53.53,0,0,1,0-.12,4.38,4.38,0,0,0,1.12-.28,3.67,3.67,0,0,0,.89-.44h.37c0,1.58,0,2.66,0,3.24,0,.17,0,.31,0,.42v0l0,.13v4.18a.65.65,0,0,0,.1.42.48.48,0,0,0,.34.11l.56.07a.74.74,0,0,1,0,.23c0,.05,0,.11,0,.19l-.54,0c-.31,0-.68,0-1.14,0h-.25c-.26,0-.64,0-1.13.06h-.5Z"/>
          <path d="M28.1,33l0-.54h.26l.72,0,1.06.05,1.07,0,.93,0h.55v.08l0,.4v0a5.19,5.19,0,0,1-.8.06.63.63,0,0,0-.5.15,1.9,1.9,0,0,0-.08.81v1.24l0,.55,0,1.18.09,1.72A2.55,2.55,0,0,0,31.73,40a1.44,1.44,0,0,0,.61.56,2.4,2.4,0,0,0,1.13.29,4.33,4.33,0,0,0,1.22-.17,2,2,0,0,0,.64-.31,1.73,1.73,0,0,0,.41-.39,2.68,2.68,0,0,0,.34-.71,5.35,5.35,0,0,0,.13-1.4q0-1.65-.18-3.72l0-.37a.88.88,0,0,0-.16-.54.67.67,0,0,0-.49-.21l-.64,0-.09,0v-.52h.54l1.31.06a12.32,12.32,0,0,0,1.25-.06h.12a1.78,1.78,0,0,1,0,.32.67.67,0,0,1,0,.18,2.26,2.26,0,0,1-.53.08,1.57,1.57,0,0,0-.51.11.3.3,0,0,0-.09.25,2.51,2.51,0,0,0,0,.35c0,.12,0,.32,0,.6v.38c0,.09,0,.18,0,.28,0,.33,0,.66,0,1l.06,1.38a12.24,12.24,0,0,1-.09,1.87,2.5,2.5,0,0,1-.26.75,2.82,2.82,0,0,1-.72.75,3.57,3.57,0,0,1-1.16.55,5.73,5.73,0,0,1-1.63.2,5.24,5.24,0,0,1-1.82-.28,2.7,2.7,0,0,1-1.14-.75,2.46,2.46,0,0,1-.53-1.2,7.57,7.57,0,0,1-.1-1.44V34.57a3.88,3.88,0,0,0-.11-1.3c-.1-.14-.42-.22-.94-.24Z"/>
          <path d="M38.47,44.76v-.31l.17-.1.53-.19a.93.93,0,0,0,.37-.21,1.71,1.71,0,0,0,.1-.72l0-2.72-.07-3.38a.88.88,0,0,0-.16-.53,1.73,1.73,0,0,0-.72-.32v-.36a6,6,0,0,0,1.13-.32,5.64,5.64,0,0,0,.91-.52H41V36.2a5,5,0,0,1,1-.48,4.38,4.38,0,0,1,1.24-.16,2.27,2.27,0,0,1,1.24.35l.11.08a1.91,1.91,0,0,1,.5.47,3.36,3.36,0,0,1,.49,1,2.77,2.77,0,0,1,.12.89,3.28,3.28,0,0,1-.19,1.2,3,3,0,0,1-.63,1,2.66,2.66,0,0,1-1,.71,2.81,2.81,0,0,1-1.08.21,3.66,3.66,0,0,1-.8-.06,4.23,4.23,0,0,1-.91-.39.58.58,0,0,0,0,.15l0,.19s0,.11,0,.18,0,.21,0,.54l0,1.25s0,.12,0,.27v.08a1.54,1.54,0,0,0,0,.36.4.4,0,0,0,.12.15l.13.07.38.08.33.07a.29.29,0,0,1,.06.19v.22H41.5l-1-.09H40l-.24,0-.37,0-.45,0-.35,0Zm2.58-4.89,0,.13a1,1,0,0,0,.68.77,2.51,2.51,0,0,0,.71.11,1.73,1.73,0,0,0,.7-.15,1.32,1.32,0,0,0,.54-.4l.09-.1.07-.16a2.44,2.44,0,0,0,.27-1.13,2.8,2.8,0,0,0-.65-1.87,1.63,1.63,0,0,0-1.31-.54,3.09,3.09,0,0,0-1.13.26c0,.18,0,.68,0,1.5l0,1.32S41.06,39.73,41.05,39.87Z"/>
        </g>
        <polyline points="0.14 15.49 37.03 0.41 37.03 0.41 73.92 15.49" fill="none" stroke="#3e3a39" stroke-miterlimit="10" stroke-width="0.75"/>
      </g>
    </g>
  </g>
</svg>
