<svg xmlns="http://www.w3.org/2000/svg" width="74.06" height="43.47" viewBox="0 0 74.06 43.47">
  <title>drink-next-arrow</title>
  <g id="712d0a93-b0b1-4f04-b495-74bf58dd6075" data-name="圖層 2">
    <g id="1cf7dc0b-ed44-4905-a3ae-8eebe412ddec" data-name="design">
      <g>
        <g>
          <path d="M26.19,2.78a4.44,4.44,0,0,1,.12.7,8.91,8.91,0,0,1,.08,1.1,1.18,1.18,0,0,1,0,.26l-.07,0-.49,0-.09,0a3.58,3.58,0,0,0-.6-1.22A1.64,1.64,0,0,0,23.9,3a1.5,1.5,0,0,0-1.06.36,1.09,1.09,0,0,0-.4.87,1.21,1.21,0,0,0,.39.84,3.88,3.88,0,0,0,1.63.77,8,8,0,0,1,1,.4,3.12,3.12,0,0,1,.9.59,2.55,2.55,0,0,1,.56.82,2.77,2.77,0,0,1,.15,1,3.43,3.43,0,0,1-.23,1.26,2,2,0,0,1-.42.63,5,5,0,0,1-.64.48,3.09,3.09,0,0,1-.89.4,4.85,4.85,0,0,1-1.19.12,5.31,5.31,0,0,1-1.14-.14l-.82-.23a1.44,1.44,0,0,1-.43-.18s0-.06-.06-.13v-.07c0-.05,0-.36,0-.94,0-.29,0-.5,0-.63V9h.64c.22.51.36.81.42.92a2.47,2.47,0,0,0,.47.57,2.1,2.1,0,0,0,.61.34,2.39,2.39,0,0,0,.77.13,2.52,2.52,0,0,0,.81-.16,1.53,1.53,0,0,0,.72-.52,1.25,1.25,0,0,0,.27-.77,1.26,1.26,0,0,0-.48-.94,5.75,5.75,0,0,0-1.54-.71A7.33,7.33,0,0,1,22.16,7a2.39,2.39,0,0,1-.77-.94A2.54,2.54,0,0,1,21.11,5a2.49,2.49,0,0,1,.78-1.85,3.19,3.19,0,0,1,2.3-.76,5.9,5.9,0,0,1,1,.12A7.48,7.48,0,0,1,26.19,2.78Z" transform="translate(0 -2.37)"/>
          <path d="M33.41,9.65l.16.08a.58.58,0,0,1,.25.17,2.1,2.1,0,0,1-.89,1.18,3,3,0,0,1-1.8.5,3.29,3.29,0,0,1-1.35-.29,2.86,2.86,0,0,1-1.07-.75,2.51,2.51,0,0,1-.46-.89,3.36,3.36,0,0,1-.15-.9,3.17,3.17,0,0,1,.19-1,3.1,3.1,0,0,1,.64-1.06,3.15,3.15,0,0,1,1.14-.79,3.83,3.83,0,0,1,1.55-.3A2.75,2.75,0,0,1,33.26,6a1,1,0,0,1,.47.74.8.8,0,0,1-.19.57.66.66,0,0,1-.52.21.84.84,0,0,1-.51-.18,1.31,1.31,0,0,1-.39-.63,1,1,0,0,0-.32-.45.72.72,0,0,0-.46-.14,1.54,1.54,0,0,0-1.15.55,2.17,2.17,0,0,0-.5,1.5,2.52,2.52,0,0,0,.62,1.81,1.86,1.86,0,0,0,1.4.68,2.22,2.22,0,0,0,.67-.09,2.26,2.26,0,0,0,.46-.27,2,2,0,0,0,.28-.29Z" transform="translate(0 -2.37)"/>
          <path d="M34.39,11.09a.46.46,0,0,1,.23-.12,2.09,2.09,0,0,0,.66-.27,5.28,5.28,0,0,0,.06-1.1c0-1.16,0-1.93-.07-2.34a.31.31,0,0,0-.11-.19,2.31,2.31,0,0,0-.47-.16.19.19,0,0,1-.16-.15l0-.25a2.06,2.06,0,0,0,.91-.35A2.3,2.3,0,0,0,36,5.6c.07-.1.14-.18.19-.24h.48a1.38,1.38,0,0,1,0,.26v.18c0,.16,0,.29,0,.4s0,.24,0,.57a5.22,5.22,0,0,1,.41-.65,3.67,3.67,0,0,1,.36-.33A.82.82,0,0,1,38,5.61a.88.88,0,0,1,.62.24.77.77,0,0,1,.27.57.93.93,0,0,1-.2.58.64.64,0,0,1-.54.25A1,1,0,0,1,37.58,7a.57.57,0,0,0-.31-.15h-.05a.51.51,0,0,0-.26.25,1.54,1.54,0,0,0-.19.71V8c0,.33,0,1.12,0,2.36a.69.69,0,0,0,.13.34.69.69,0,0,0,.25.14,3.09,3.09,0,0,0,.44.07A.75.75,0,0,1,38,11a.27.27,0,0,1,.07.19,1,1,0,0,1,0,.2h-.65l-1.3-.06c-.33,0-.63,0-.9,0H35.1l-.71,0a.75.75,0,0,1,0-.17A.61.61,0,0,1,34.39,11.09Z" transform="translate(0 -2.37)"/>
          <path d="M45,6.45a2.75,2.75,0,0,1,.66,1,2.92,2.92,0,0,1,.21,1,3.24,3.24,0,0,1-.28,1.47,2.81,2.81,0,0,1-1.14,1.26,3.46,3.46,0,0,1-1.67.4A3.26,3.26,0,0,1,41,11.11,2.89,2.89,0,0,1,39.9,10a3.25,3.25,0,0,1-.32-1.51,3,3,0,0,1,.15-.92,2.87,2.87,0,0,1,.41-.8,2.83,2.83,0,0,1,.58-.57,3.21,3.21,0,0,1,.92-.47,3.68,3.68,0,0,1,1.12-.14A2.92,2.92,0,0,1,45,6.45ZM41.26,8.81c0,.57.07.89.08,1a2.71,2.71,0,0,0,.28.79,1.11,1.11,0,0,0,.44.37,1.46,1.46,0,0,0,.71.17,1.17,1.17,0,0,0,.84-.32,1.89,1.89,0,0,0,.5-1,8.19,8.19,0,0,0,.09-1.46,2.92,2.92,0,0,0-.41-1.76,1.31,1.31,0,0,0-1.08-.51,1.27,1.27,0,0,0-.87.29,1.6,1.6,0,0,0-.48.87A9.14,9.14,0,0,0,41.26,8.81Z" transform="translate(0 -2.37)"/>
          <path d="M46.41,11.13a.86.86,0,0,1,.4-.14c.32,0,.5-.08.54-.14a1.3,1.3,0,0,0,.14-.72V6.36l0-1.57V4.51a2.72,2.72,0,0,0-.09-.82,1,1,0,0,0-.51-.15,1.48,1.48,0,0,1-.31,0,1.34,1.34,0,0,1,0-.25.62.62,0,0,1,0-.13,4.92,4.92,0,0,0,1.12-.27,4.07,4.07,0,0,0,.89-.44h.36c0,1.57,0,2.65,0,3.23,0,.18,0,.31,0,.42v3.2l0,1v.17a.71.71,0,0,0,.09.41.53.53,0,0,0,.35.11L50,11a1.39,1.39,0,0,1,0,.23c0,.05,0,.11,0,.2l-.54,0c-.3,0-.68,0-1.13,0h-.26c-.26,0-.63,0-1.12.07h-.5Z" transform="translate(0 -2.37)"/>
          <path d="M50.05,11.13a.9.9,0,0,1,.4-.14,1,1,0,0,0,.55-.14,1.32,1.32,0,0,0,.13-.72V4.51A2.72,2.72,0,0,0,51,3.69a1,1,0,0,0-.52-.15,1.55,1.55,0,0,1-.31,0c0-.11,0-.2,0-.25a.62.62,0,0,1,0-.13,4.8,4.8,0,0,0,1.12-.27,4.07,4.07,0,0,0,.89-.44h.37c0,1.57,0,2.65,0,3.23,0,.18,0,.31,0,.42v0l0,.13v4.19a.63.63,0,0,0,.1.41.48.48,0,0,0,.34.11l.56.07a.79.79,0,0,1,0,.23c0,.05,0,.11,0,.2l-.54,0c-.31,0-.68,0-1.14,0h-.25c-.26,0-.64,0-1.13.07h-.5Z" transform="translate(0 -2.37)"/>
          <path d="M19.51,25.66l.42-.08a1.84,1.84,0,0,0,.84-.29.74.74,0,0,0,.15-.45c0-.05,0-.74,0-2.08V21.1l0-2.33V18.5a.33.33,0,0,0-.1-.27s-.12-.05-.26-.05a2.1,2.1,0,0,0-.41,0l-.54.05-.13,0v-.6a9.09,9.09,0,0,1,1.16-.25,18.85,18.85,0,0,1,3.06-.2,10,10,0,0,1,2.22.17,4.52,4.52,0,0,1,1.74.79A4.71,4.71,0,0,1,29,19.83a4.53,4.53,0,0,1,.45,2,4.43,4.43,0,0,1-.6,2.36,4.35,4.35,0,0,1-1.73,1.58,4.53,4.53,0,0,1-2.16.43l-1.4-.06-.41,0-.55,0-.17,0-.57,0h-.76l-.7,0-.57,0h-.33C19.51,26.12,19.51,25.93,19.51,25.66Zm3.31-7.6c0,.14,0,.24,0,.3v2.17c0,.33,0,.61,0,.86l0,.65,0,1.08,0,.67a1.75,1.75,0,0,0,.35,1.27,2,2,0,0,0,1.4.48,2.7,2.7,0,0,0,1-.13,2.75,2.75,0,0,0,1.07-.69,2.84,2.84,0,0,0,.6-1.22,6.66,6.66,0,0,0,.2-1.62A5,5,0,0,0,27,19.63a3.05,3.05,0,0,0-1.21-1.32A3.47,3.47,0,0,0,24,17.87,3.38,3.38,0,0,0,22.82,18.06Z" transform="translate(0 -2.37)"/>
          <path d="M36,21.25a2.88,2.88,0,0,1,.66,1,2.92,2.92,0,0,1,.21,1,3.24,3.24,0,0,1-.28,1.47A2.81,2.81,0,0,1,35.47,26a3.46,3.46,0,0,1-1.67.4A3.26,3.26,0,0,1,32,25.91a2.89,2.89,0,0,1-1.06-1.09,3.13,3.13,0,0,1-.32-1.51,3,3,0,0,1,.15-.92,2.87,2.87,0,0,1,.41-.8,2.83,2.83,0,0,1,.58-.57,3.09,3.09,0,0,1,.92-.47,3.68,3.68,0,0,1,1.12-.14A2.93,2.93,0,0,1,36,21.25Zm-3.74,2.36c0,.57.07.89.09,1a2.45,2.45,0,0,0,.28.79,1.15,1.15,0,0,0,.43.37,1.47,1.47,0,0,0,.72.17,1.2,1.2,0,0,0,.84-.32,1.88,1.88,0,0,0,.49-1,7.13,7.13,0,0,0,.1-1.46,2.92,2.92,0,0,0-.41-1.76,1.31,1.31,0,0,0-1.08-.51,1.27,1.27,0,0,0-.87.29,1.6,1.6,0,0,0-.48.87A8.79,8.79,0,0,0,32.28,23.61Z" transform="translate(0 -2.37)"/>
          <path d="M37.18,20.68h.22l.48,0a7.42,7.42,0,0,0,.77.05c.19,0,.44,0,.77-.05l.6,0h.25c0,.09,0,.16,0,.21a.5.5,0,0,1,0,.16L40,21.1a1.39,1.39,0,0,0-.42.13.13.13,0,0,0-.05.09c0,.14.08.26.12.37l.67,1.53c.22.5.41.9.57,1.18s.15.34.19.41a12.41,12.41,0,0,0,1-2.15L41.76,22a8.07,8.07,0,0,0-.4-.78l-.26-.06L40.63,21v-.39l.69,0c.2,0,.51,0,.91,0H43l.53,0h.34l0,.39-.34,0a2.81,2.81,0,0,0-.47.09q.35.86.45,1l.08.15.73,1.6.26.55.26-.59c.22-.48.35-.77.39-.88a6.16,6.16,0,0,1,.24-.58,2.83,2.83,0,0,0,.32-1q0-.09-.15-.18a2.83,2.83,0,0,0-.5-.17,2.43,2.43,0,0,1-.45-.09l0-.35.17,0,.62,0,.66,0c.17,0,.43,0,.79-.05a2.76,2.76,0,0,1,.38,0v.41a3.69,3.69,0,0,0-.85.32.42.42,0,0,0-.08.13l-1,2.35q-.26.55-.9,2.13c-.06.14-.1.25-.14.33h-.51l-1.16-2.6-.13-.27a1.49,1.49,0,0,0-.13-.25l-.06.11L41.47,25c-.12.27-.24.5-.34.69a4.85,4.85,0,0,0-.29.61h-.61l-1.06-2.27L38,21.58a.94.94,0,0,0-.2-.27.86.86,0,0,0-.38-.16.62.62,0,0,1-.26-.09c0-.08,0-.15,0-.19A1.11,1.11,0,0,1,37.18,20.68Z" transform="translate(0 -2.37)"/>
          <path d="M47.45,25.89a1.28,1.28,0,0,1,.33-.11,2.21,2.21,0,0,0,.44-.1.3.3,0,0,0,.13-.15,2.49,2.49,0,0,0,0-.61V23.84l0-.72v-.43a2.7,2.7,0,0,0-.07-.7.35.35,0,0,0-.17-.21,2.2,2.2,0,0,0-.65-.27v-.32l.16,0L48.2,21c.25-.1.41-.16.48-.2l.11-.06.19-.13a3.33,3.33,0,0,0,.49-.5l.37,0,0,.77a1.42,1.42,0,0,0,0,.19s0,.14,0,.31a4.11,4.11,0,0,1,1-.68A3,3,0,0,1,52,20.43a2,2,0,0,1,1.12.32,1.53,1.53,0,0,1,.64.74,6,6,0,0,1,.15,1.68l0,2.24a.53.53,0,0,0,.06.26,1.17,1.17,0,0,0,.37.09l.34.07a.37.37,0,0,1,.06.21,2.11,2.11,0,0,1,0,.23l-1.34-.1h-.71l-.9.07h-.23a.82.82,0,0,1,0-.14,2.44,2.44,0,0,1,0-.26l.48-.06.23-.05c.09,0,.14-.07.15-.11a1.14,1.14,0,0,0,.06-.45c0-.38,0-.67,0-.88v-.79a5.18,5.18,0,0,0-.18-1.8.84.84,0,0,0-.78-.52,1.81,1.81,0,0,0-.79.2,3.54,3.54,0,0,0-.85.59v1l0,1.09,0,.17a4.36,4.36,0,0,0,.09,1.26,1.53,1.53,0,0,0,.68.32.62.62,0,0,1,0,.17,1,1,0,0,1,0,.25h-.36a3.54,3.54,0,0,1-.45-.05h-.73c-.37,0-.9,0-1.59.05a.39.39,0,0,1,0-.15Z" transform="translate(0 -2.37)"/>
        </g>
        <polyline points="73.92 27.98 37.03 43.06 37.03 43.06 0.14 27.98" fill="none" stroke="#3e3a39" stroke-miterlimit="10" stroke-width="0.75"/>
      </g>
    </g>
  </g>
</svg>
