<svg xmlns="http://www.w3.org/2000/svg" width="105.8" height="31.1" viewBox="0 0 105.8 31.1">
  <g>
    <g>
      <g style="opacity: 0.85">
        <g>
          <path d="M7.4,15.5Z" transform="translate(0 0)" style="fill: #3a302e"/>
          <path d="M7.3,15.5Z" transform="translate(0 0)" style="fill: #3a302e"/>
          <path d="M7.1,15.5h0Z" transform="translate(0 0)" style="fill: #3a302e"/>
          <path d="M7.2,15.5Z" transform="translate(0 0)" style="fill: #3a302e"/>
          <path d="M7.2,15.5h0Z" transform="translate(0 0)" style="fill: #3a302e"/>
          <path d="M7.2,16H7c0,.1-.1-.1-.1-.1s-.2.3-.1.3h.3l.4-.2H7.2Z" transform="translate(0 0)" style="fill: #3a302e"/>
          <path d="M8,15.6H7.8c.1,0,.1-.1,0-.1H8Z" transform="translate(0 0)" style="fill: #3a302e"/>
          <path d="M8.1,15.7Z" transform="translate(0 0)" style="fill: #3a302e"/>
          <path d="M6.8,15.6H5.5c.1.1.1-.1.1,0s0,.1-.1,0H3.7l-.9-.2c-.6-.2-1.1,0-1.7-.3H.2a.8.8,0,0,0-.1.9c.1.5.3.2.7.5s.1-.3.4,0,.8.1,1.3.2h.3c.7.1,1.3-.1,2,0l.5-.2c.1-.1.2,0,.3,0h0l.2-.2c0-.1,0,.1.1.1H6c.1-.1.1.1.1.1s.1-.3.2-.2h.1a.1.1,0,0,0,.1.1h0l.4-.2H7Z" transform="translate(0 0)" style="fill: #3a302e"/>
          <path d="M6.1,15.6Z" transform="translate(0 0)" style="fill: #3a302e"/>
        </g>
      </g>
      <g style="opacity: 0.85">
        <g>
          <path d="M7.8,18.3h0Z" transform="translate(0 0)" style="fill: #3a302e"/>
          <path d="M7.7,18.4Z" transform="translate(0 0)" style="fill: #3a302e"/>
          <path d="M7.6,18.5h0Z" transform="translate(0 0)" style="fill: #3a302e"/>
          <path d="M7.7,18.5H7.6C7.7,18.4,7.7,18.4,7.7,18.5Z" transform="translate(0 0)" style="fill: #3a302e"/>
          <path d="M7.7,18.5Z" transform="translate(0 0)" style="fill: #3a302e"/>
          <path d="M7.8,18.9h0c-.1.1-.1.2-.2.2H7.5c-.1.1-.2.3-.1.3l.4-.2c0-.1.1-.2.2-.3H8C7.9,18.7,7.9,18.9,7.8,18.9Z" transform="translate(0 0)" style="fill: #3a302e"/>
          <path d="M8.4,18.2h0c-.1-.1-.1,0-.2,0h.3A.1.1,0,0,0,8.4,18.2Z" transform="translate(0 0)" style="fill: #3a302e"/>
          <path d="M8.5,18.3Z" transform="translate(0 0)" style="fill: #3a302e"/>
          <path d="M7.3,18.7H6.7c-.1,0,0,0,0,.1H6.2a.1.1,0,0,1-.1.1H5.9c0-.1.1,0,.2,0h0a.1.1,0,0,0,.1-.1H5.9l-1.6.4-.9.2c-.6,0-1.1.4-1.7.3a1.3,1.3,0,0,0-.9.2A.7.7,0,0,0,1,21c.3.4.4.1.8.3s.1-.4.4-.1.8-.2,1.3-.3h.3a7,7,0,0,0,1.9-.6c.2-.1.3-.3.4-.4h.3c.1,0,.3-.1.3-.2l-.3.2c-.1,0,0-.2.1-.2s.1,0,.1,0h.2c.1,0,.1-.2.1-.2h.3a.1.1,0,0,1-.1-.1h0a.1.1,0,0,0,.1.1l.3-.3H7.2c.1,0,.1.1,0,.1h0a.1.1,0,0,1,.2,0h.1C7.5,18.7,7.3,18.7,7.3,18.7Z" transform="translate(0 0)" style="fill: #3a302e"/>
          <path d="M6.6,18.9H6.5C6.5,19,6.6,19,6.6,18.9Z" transform="translate(0 0)" style="fill: #3a302e"/>
        </g>
      </g>
      <g style="opacity: 0.85">
        <g>
          <path d="M9.2,20.9h0Z" transform="translate(0 0)" style="fill: #3a302e"/>
          <path d="M9.1,21Z" transform="translate(0 0)" style="fill: #3a302e"/>
          <path d="M9,21.1H9Z" transform="translate(0 0)" style="fill: #3a302e"/>
          <path d="M9.1,21Z" transform="translate(0 0)" style="fill: #3a302e"/>
          <path d="M9.1,21h0Z" transform="translate(0 0)" style="fill: #3a302e"/>
          <path d="M9.4,21.4H9.3a.3.3,0,0,1-.1.2s-.1-.1-.1,0-.1.3,0,.2.2-.2.2-.3l.2-.3H9.4Z" transform="translate(0 0)" style="fill: #3a302e"/>
          <path d="M9.7,20.6Z" transform="translate(0 0)" style="fill: #3a302e"/>
          <path d="M9.8,20.6Z" transform="translate(0 0)" style="fill: #3a302e"/>
          <path d="M8.8,21.4l-.4.3H8.1c0,.1,0,.1-.1.1H8c-.1,0-.1,0-.1.1h0c.1,0,0-.2.1-.1s0,.1-.1.1H7.8c0,.1-.1.1-.2.1h.1l-1.4,1-.8.4c-.6.3-.9.8-1.6.9l-.7.5a1,1,0,0,0,.5.8c.4.2.4-.1.8-.1s0-.4.4-.3.7-.4,1.1-.6l.3-.2c.6-.3.9-.9,1.5-1.3l.3-.4.2-.2.3-.4-.3.3v-.2h.1c.1,0,.1-.1.1-.2s.1.1.1,0,0-.2.1-.2h.2c0-.2.1-.3.1-.5H9c0,.1-.1.1-.2.1s.1.1,0,.1h0c0-.1,0-.2.1-.2H8.8Z" transform="translate(0 0)" style="fill: #3a302e"/>
          <path d="M8.3,21.9h0Z" transform="translate(0 0)" style="fill: #3a302e"/>
        </g>
      </g>
      <g style="opacity: 0.85">
        <g>
          <path d="M11.3,22.8h0Z" transform="translate(0 0)" style="fill: #3a302e"/>
          <path d="M11.3,22.9Z" transform="translate(0 0)" style="fill: #3a302e"/>
          <path d="M11.2,23.1h0Z" transform="translate(0 0)" style="fill: #3a302e"/>
          <path d="M11.3,23h0c0,.1,0,.1-.1.1Z" transform="translate(0 0)" style="fill: #3a302e"/>
          <path d="M11.3,23h0Z" transform="translate(0 0)" style="fill: #3a302e"/>
          <path d="M11.7,23.2c0,.1-.1,0-.1,0v.2c0,.1-.1,0-.1.1s0,.3.1.2.1-.2.1-.4V23a.1.1,0,0,1,.1-.1c-.1,0-.1,0-.1.1S11.7,23.1,11.7,23.2Z" transform="translate(0 0)" style="fill: #3a302e"/>
          <path d="M11.7,22.3h0a.1.1,0,0,0-.1.1h0l.2-.2Z" transform="translate(0 0)" style="fill: #3a302e"/>
          <path d="M11.8,22.3Z" transform="translate(0 0)" style="fill: #3a302e"/>
          <path d="M11.2,23.4l-.3.4h-.3c.1.1-.1-.1.1,0s0,.1-.1,0h-.1a.1.1,0,0,1-.1.1c-.1,0,0-.1.1-.1h0l-.2.2-.9,1.3-.6.8c-.4.4-.6,1-1.2,1.3s-.3.6-.4.8.6.5.6.5.4-.2.8-.4-.2-.3.3-.3.5-.7.8-1l.2-.3a9.5,9.5,0,0,0,1-1.7c.1-.2,0-.4.1-.6s.1-.1.2-.2,0-.3.1-.4-.1.2-.2.4a1,1,0,0,1-.1-.3h.1v-.2c-.1-.1.1,0,0,0s0-.3,0-.3.1,0,.1-.1h.1v-.4h-.2s.1,0,0,.1h0c0-.1,0-.2.1-.2h-.1Z" transform="translate(0 0)" style="fill: #3a302e"/>
          <path d="M10.8,24h-.1C10.8,24.1,10.8,24.1,10.8,24Z" transform="translate(0 0)" style="fill: #3a302e"/>
        </g>
      </g>
      <g style="opacity: 0.85">
        <g>
          <path d="M14,23.9Z" transform="translate(0 0)" style="fill: #3a302e"/>
          <path d="M14,24Z" transform="translate(0 0)" style="fill: #3a302e"/>
          <path d="M14,24.1Z" transform="translate(0 0)" style="fill: #3a302e"/>
          <path d="M14,24Z" transform="translate(0 0)" style="fill: #3a302e"/>
          <path d="M14,24h0Z" transform="translate(0 0)" style="fill: #3a302e"/>
          <path d="M14.5,24.2h-.1c0,.1.1.1.1.2s-.2,0-.1.1.1.2.2.1-.1-.2-.1-.4a.4.4,0,0,0-.1-.3h0C14.3,24,14.5,24.1,14.5,24.2Z" transform="translate(0 0)" style="fill: #3a302e"/>
          <path d="M14.2,23.3h0c-.1.1,0,.1,0,.2h.1s-.1-.1-.1,0v-.2Z" transform="translate(0 0)" style="fill: #3a302e"/>
          <path d="M14.3,23.2h0Z" transform="translate(0 0)" style="fill: #3a302e"/>
          <path d="M14.1,24.5a.7.7,0,0,0-.1.5h-.2c.1,0,.1,0,.1-.1s-.1,0,0-.1.1.1,0,.1,0,.1-.1.1h0a.4.4,0,0,0-.1.3,7.5,7.5,0,0,0-.4,1.6,3.6,3.6,0,0,1-.4.9c-.2.5-.1,1.1-.6,1.6s-.1.7-.2.9.8.3.8.3.3-.3.7-.6-.3-.3.1-.5.2-.8.4-1.2a.4.4,0,0,0,.1-.3,6.4,6.4,0,0,0,.3-2c.1-.2,0-.3-.1-.5s.1-.2.1-.3v0l-.2-.2h.1a.3.3,0,0,0-.1-.2h.1a.3.3,0,0,0-.1-.2c0-.1.1-.1.1-.2h-.2c.1,0,.1,0,.1-.1s0,.1-.1.1h.2c-.1-.1-.1-.3-.2-.4h0c0,.1,0,.2-.1.2h0c0-.1,0-.2.1-.2h-.1Z" transform="translate(0 0)" style="fill: #3a302e"/>
          <path d="M13.9,25.2Z" transform="translate(0 0)" style="fill: #3a302e"/>
        </g>
      </g>
      <g style="opacity: 0.85">
        <g>
          <path d="M8,12.6H8Z" transform="translate(0 0)" style="fill: #3a302e"/>
          <path d="M7.8,12.6Z" transform="translate(0 0)" style="fill: #3a302e"/>
          <path d="M7.7,12.6Z" transform="translate(0 0)" style="fill: #3a302e"/>
          <path d="M7.8,12.6Z" transform="translate(0 0)" style="fill: #3a302e"/>
          <path d="M7.8,12.6h0Z" transform="translate(0 0)" style="fill: #3a302e"/>
          <path d="M7.6,13.1h0Z" transform="translate(0 0)" style="fill: #3a302e"/>
          <path d="M8.5,12.9H8.4c0-.2-.1-.1-.1-.1h.2Z" transform="translate(0 0)" style="fill: #3a302e"/>
          <path d="M8.5,13Z" transform="translate(0 0)" style="fill: #3a302e"/>
          <path d="M7.4,12.6l-.5-.2H6.1c0,.1.1-.1.1.1s-.1,0-.1-.1H6l-1.5-.7-.8-.5c-.5-.4-1.1-.4-1.5-.9a1.3,1.3,0,0,0-.8-.3c-.4.1-.4.7-.4.7s.2.3.4.7.3-.2.4.2.8.4,1.2.6l.3.2c.5.4,1.2.4,1.8.7h.6l.3.2H6c-.1-.1.1-.2.2-.2s0,.2.1.1.1,0,.2,0-.1.1,0,.1h.9l-.2-.2h.2Z" transform="translate(0 0)" style="fill: #3a302e"/>
          <path d="M6.6,12.3h0Z" transform="translate(0 0)" style="fill: #3a302e"/>
        </g>
      </g>
      <g style="opacity: 0.85">
        <g>
          <path d="M9.4,10.2h0Z" transform="translate(0 0)" style="fill: #3a302e"/>
          <path d="M9.3,10.1Z" transform="translate(0 0)" style="fill: #3a302e"/>
          <path d="M9.2,10Z" transform="translate(0 0)" style="fill: #3a302e"/>
          <path d="M9.3,10.1Z" transform="translate(0 0)" style="fill: #3a302e"/>
          <path d="M9.3,10.1h0Z" transform="translate(0 0)" style="fill: #3a302e"/>
          <path d="M8.9,10.4s.1-.1,0-.1H8.7s.1-.1,0-.1H8.5l.3.2h.4v-.2Z" transform="translate(0 0)" style="fill: #3a302e"/>
          <path d="M9.8,10.6H9.7c0,.1,0,.2.1.2Z" transform="translate(0 0)" style="fill: #3a302e"/>
          <path d="M9.8,10.7Z" transform="translate(0 0)" style="fill: #3a302e"/>
          <path d="M8.9,9.9a.8.8,0,0,1-.4-.4H8.2a.1.1,0,0,1-.1-.1H7.8v.2h0V9h0c.1,0,.1,0,0,.1H8l-.2-.2A6.3,6.3,0,0,0,6.7,7.7,1.9,1.9,0,0,1,6.1,7c-.4-.5-.9-.7-1.2-1.4L4.3,5c-.4,0-.6.5-.7.6s.2.4.3.8.3-.1.3.3.6.6.8,1l.2.2c.4.6,1.1.8,1.6,1.3l.5.2.2.2a.5.5,0,0,0,.4.2l-.4-.2h.3s-.1.2,0,.2H8s-.1.1,0,.1h.8V9.9h.2Z" transform="translate(0 0)" style="fill: #3a302e"/>
          <path d="M8.3,9.4Z" transform="translate(0 0)" style="fill: #3a302e"/>
        </g>
      </g>
      <g style="opacity: 0.85">
        <g>
          <path d="M11.7,8.4h0Z" transform="translate(0 0)" style="fill: #3a302e"/>
          <path d="M11.6,8.2Z" transform="translate(0 0)" style="fill: #3a302e"/>
          <path d="M11.5,8.1h0Z" transform="translate(0 0)" style="fill: #3a302e"/>
          <path d="M11.5,8.2h0Z" transform="translate(0 0)" style="fill: #3a302e"/>
          <path d="M11.5,8.2h0Z" transform="translate(0 0)" style="fill: #3a302e"/>
          <path d="M11.1,8.4s.1,0,0-.1a.1.1,0,0,1-.1-.1c-.1,0,0-.1,0-.1h-.3l.3.3.3.2h0V8.5Z" transform="translate(0 0)" style="fill: #3a302e"/>
          <path d="M11.9,8.9h-.1c.1-.1,0-.1-.1-.2h0a.1.1,0,0,0,.1-.1c-.1.2,0,.2,0,.3Z" transform="translate(0 0)" style="fill: #3a302e"/>
          <path d="M11.8,9Z" transform="translate(0 0)" style="fill: #3a302e"/>
          <path d="M11.2,7.9c-.1-.2-.2-.3-.2-.5h-.1V7.1h0s-.1-.1,0-.1h0c-.1-.1-.1-.1-.1-.2h-.2c0,.1.1,0,.1.1s-.1,0-.1-.1h.1c-.1,0-.1-.1,0-.1h.1a.3.3,0,0,1-.1-.2L9.9,5.1l-.3-.9c-.2-.6-.6-1-.6-1.7a1.6,1.6,0,0,0-.4-.7.6.6,0,0,0-.8.3c-.3.4,0,.4-.1.8s.4,0,.2.4.3.8.4,1.2l.2.3a9.5,9.5,0,0,0,1,1.7c.1.2.3.3.4.4a.4.4,0,0,1,.1.3l.3.3-.2-.3c-.1-.1.1,0,.2,0s-.1.1,0,.1.1.1.2.1h.2v.2h0l.4.3h0V7.8a.1.1,0,0,1-.1.1h.1a.1.1,0,0,1,0,.2h.1Z" transform="translate(0 0)" style="fill: #3a302e"/>
          <path d="M10.8,7.2h.1V7.1Z" transform="translate(0 0)" style="fill: #3a302e"/>
        </g>
      </g>
      <g style="opacity: 0.85">
        <g>
          <path d="M14.4,7.4h0Z" transform="translate(0 0)" style="fill: #3a302e"/>
          <path d="M14.4,7.2Z" transform="translate(0 0)" style="fill: #3a302e"/>
          <path d="M14.3,7.1h0Z" transform="translate(0 0)" style="fill: #3a302e"/>
          <path d="M14.3,7.2Z" transform="translate(0 0)" style="fill: #3a302e"/>
          <path d="M14.3,7.2h0Z" transform="translate(0 0)" style="fill: #3a302e"/>
          <path d="M13.8,7.3h.1a.1.1,0,0,1-.1-.1c-.1-.1.1-.1,0-.2h-.2c0,.2.1.3.1.4l.3.3h0C14,7.4,13.8,7.4,13.8,7.3Z" transform="translate(0 0)" style="fill: #3a302e"/>
          <path d="M14.4,8h-.1c.1-.1.1-.2,0-.2h0V8Z" transform="translate(0 0)" style="fill: #3a302e"/>
          <path d="M14.3,8.1h0Z" transform="translate(0 0)" style="fill: #3a302e"/>
          <path d="M14.1,6.8a1.1,1.1,0,0,0-.1-.5h0s-.1,0,0-.1h0a.1.1,0,0,0-.1-.1h-.1c-.1,0,.1,0,0,.1s-.1-.1,0-.1h.1c.1,0,.1.1,0,.1h0a.1.1,0,0,1,.1.1V5.4a9.9,9.9,0,0,0-.2-1.7V2.8c.1-.6-.2-1.1.1-1.8a3.7,3.7,0,0,0-.2-.9c-.2-.2-.8,0-.8.1s-.2.3-.4.7.4.2.1.5,0,.8,0,1.3,0,.2,0,.3.3,1.3.3,2l.3.4c.1.1,0,.3,0,.4l.2.3c0-.1-.1-.2-.1-.3s.2,0,.2.1h.1a.1.1,0,0,1-.1.1c0,.1.2.1.2.2h0L14,7h0a.2.2,0,0,1,0-.3h0a.1.1,0,0,1,0,.2h0C14.1,7,14.1,6.8,14.1,6.8Z" transform="translate(0 0)" style="fill: #3a302e"/>
          <path d="M14,6.1h0C13.9,6,14,6.1,14,6.1Z" transform="translate(0 0)" style="fill: #3a302e"/>
        </g>
      </g>
    </g>
    <g>
      <g style="opacity: 0.85">
        <g>
          <path d="M98.4,15.7h0Z" transform="translate(0 0)" style="fill: #3a302e"/>
          <path d="M98.5,15.7Z" transform="translate(0 0)" style="fill: #3a302e"/>
          <path d="M98.7,15.7h0Z" transform="translate(0 0)" style="fill: #3a302e"/>
          <path d="M98.6,15.7Z" transform="translate(0 0)" style="fill: #3a302e"/>
          <path d="M98.6,15.7h0Z" transform="translate(0 0)" style="fill: #3a302e"/>
          <path d="M98.6,15.2h.3l.2-.2h-.4a.5.5,0,0,1-.4.2h.1S98.5,15.2,98.6,15.2Z" transform="translate(0 0)" style="fill: #3a302e"/>
          <path d="M97.8,15.6Z" transform="translate(0 0)" style="fill: #3a302e"/>
          <path d="M97.7,15.6h0Z" transform="translate(0 0)" style="fill: #3a302e"/>
          <path d="M99,15.6h3.1l.9.2c.6.2,1.1,0,1.7.3a1.5,1.5,0,0,0,.9.1,1.1,1.1,0,0,0,.2-.9c-.2-.5-.4-.2-.7-.5s-.2.3-.5,0-.8-.1-1.2-.2-.3,0-.4,0a6.7,6.7,0,0,0-2,0h-.8l-.2.2h-.3c-.1,0-.1.2-.2.1h-.2l-.4.2h-.1Z" transform="translate(0 0)" style="fill: #3a302e"/>
          <path d="M99.7,15.6Z" transform="translate(0 0)" style="fill: #3a302e"/>
        </g>
      </g>
      <g style="opacity: 0.85">
        <g>
          <path d="M98,12.9Z" transform="translate(0 0)" style="fill: #3a302e"/>
          <path d="M98.1,12.8Z" transform="translate(0 0)" style="fill: #3a302e"/>
          <path d="M98.2,12.8Z" transform="translate(0 0)" style="fill: #3a302e"/>
          <path d="M98.1,12.8Z" transform="translate(0 0)" style="fill: #3a302e"/>
          <path d="M98.1,12.8h0Z" transform="translate(0 0)" style="fill: #3a302e"/>
          <path d="M98,12.3h.1c0-.1,0-.2.1-.2h.1c.1-.1.2-.3.1-.3l-.4.2c0,.1-.1.2-.2.3h0C97.9,12.6,97.9,12.4,98,12.3Z" transform="translate(0 0)" style="fill: #3a302e"/>
          <path d="M97.4,13h0Z" transform="translate(0 0)" style="fill: #3a302e"/>
          <path d="M97.3,12.9Z" transform="translate(0 0)" style="fill: #3a302e"/>
          <path d="M98.5,12.5h.7a.1.1,0,0,1,.1-.1h0c.1-.1.1-.1.2,0h.4l1.6-.5h.9a5.2,5.2,0,0,1,1.8-.3l.8-.3a.7.7,0,0,0-.2-.8c-.3-.4-.4-.1-.8-.3s-.1.4-.4.2-.8.2-1.3.2H102c-.7,0-1.2.5-1.9.7s-.3.2-.4.3h-.3l-.3.2.3-.2c.1,0,0,.2-.1.3h-.1v.2H99V12h-.3l-.3.3h.3c-.1,0-.1,0,0-.1h-.1Z" transform="translate(0 0)" style="fill: #3a302e"/>
          <path d="M99.2,12.3h.1C99.3,12.2,99.2,12.2,99.2,12.3Z" transform="translate(0 0)" style="fill: #3a302e"/>
        </g>
      </g>
      <g style="opacity: 0.85">
        <g>
          <path d="M96.6,10.3h0Z" transform="translate(0 0)" style="fill: #3a302e"/>
          <path d="M96.7,10.3h0Z" transform="translate(0 0)" style="fill: #3a302e"/>
          <path d="M96.8,10.1h0Z" transform="translate(0 0)" style="fill: #3a302e"/>
          <path d="M96.7,10.2Z" transform="translate(0 0)" style="fill: #3a302e"/>
          <path d="M96.7,10.2Z" transform="translate(0 0)" style="fill: #3a302e"/>
          <path d="M96.4,9.8h.1a.3.3,0,0,1,.1-.2h.1c.1,0,.1-.3,0-.2l-.2.3-.2.3h.1Z" transform="translate(0 0)" style="fill: #3a302e"/>
          <path d="M96.1,10.7h0Z" transform="translate(0 0)" style="fill: #3a302e"/>
          <path d="M96,10.6Z" transform="translate(0 0)" style="fill: #3a302e"/>
          <path d="M97,9.9a.8.8,0,0,1,.4-.4h.3a.1.1,0,0,1,.1-.1h.1V9h0c-.1,0,0,.2-.1.1s0-.1.1-.1h0v.2l.3-.2,1.3-1,.8-.4c.6-.3.9-.8,1.6-.9s.5-.4.7-.5-.4-.7-.5-.8-.4.1-.8.1,0,.4-.4.3-.7.4-1.1.6l-.3.2c-.6.3-.9.9-1.5,1.3l-.3.5h-.2l-.3.4.3-.3v.2h-.1V9h-.1v.2h-.3c0,.1-.1.2-.1.4h0c0-.1.1-.1.2-.1h0a.1.1,0,0,1-.1.1H97Z" transform="translate(0 0)" style="fill: #3a302e"/>
          <path d="M97.6,9.4h0Z" transform="translate(0 0)" style="fill: #3a302e"/>
        </g>
      </g>
      <g style="opacity: 0.85">
        <g>
          <path d="M94.5,8.4Z" transform="translate(0 0)" style="fill: #3a302e"/>
          <path d="M94.5,8.3h0Z" transform="translate(0 0)" style="fill: #3a302e"/>
          <path d="M94.6,8.2Z" transform="translate(0 0)" style="fill: #3a302e"/>
          <path d="M94.5,8.2h0a.1.1,0,0,0,.1-.1Z" transform="translate(0 0)" style="fill: #3a302e"/>
          <path d="M94.5,8.2h0Z" transform="translate(0 0)" style="fill: #3a302e"/>
          <path d="M94.1,8h.1V7.8h.1s0-.3-.1-.2-.1.3-.1.4v.3a.1.1,0,0,1-.1.1c.1,0,.1,0,.1-.1S94.1,8.1,94.1,8Z" transform="translate(0 0)" style="fill: #3a302e"/>
          <path d="M94.1,8.9h0c.1,0,.1,0,.1-.1h0l-.2.2Z" transform="translate(0 0)" style="fill: #3a302e"/>
          <path d="M94,8.9Z" transform="translate(0 0)" style="fill: #3a302e"/>
          <path d="M94.6,7.8l.3-.4H95a.1.1,0,0,0,.1-.1h.2V6.7h-.1c-.1,0,.1.1-.1.1s0-.1.1-.1h.1a.1.1,0,0,1,.1-.1c.1.1,0,.1-.1.1h0v.2c0-.1.1-.2.2-.3l.9-1.3.6-.7a5.3,5.3,0,0,1,1.2-1.4c.2-.1.3-.5.4-.7s-.6-.6-.6-.6-.4.2-.8.4.2.3-.3.4-.5.6-.8.9l-.2.3c-.5.5-.6,1.2-1,1.7s0,.4,0,.6l-.2.2a.8.8,0,0,0-.1.4.4.4,0,0,1,.1-.3c0-.1.1.1.1.2h-.1a.1.1,0,0,0,0,.2h-.1c-.1.1.1.3,0,.3h-.2v.4h.2c0,.1,0,.2-.1.2h0a.1.1,0,0,0-.1-.1h.2Z" transform="translate(0 0)" style="fill: #3a302e"/>
          <path d="M95,7.2h.1C95,7.1,95,7.1,95,7.2Z" transform="translate(0 0)" style="fill: #3a302e"/>
        </g>
      </g>
      <g style="opacity: 0.85">
        <g>
          <path d="M91.8,7.4h-.1A.1.1,0,0,1,91.8,7.4Z" transform="translate(0 0)" style="fill: #3a302e"/>
          <path d="M91.8,7.2Z" transform="translate(0 0)" style="fill: #3a302e"/>
          <path d="M91.8,7.1Z" transform="translate(0 0)" style="fill: #3a302e"/>
          <path d="M91.8,7.2Z" transform="translate(0 0)" style="fill: #3a302e"/>
          <path d="M91.8,7.2h0Z" transform="translate(0 0)" style="fill: #3a302e"/>
          <path d="M91.3,7.1h.1a.3.3,0,0,1-.1-.2h.1c0-.1-.1-.3-.2-.2s.1.2.1.4a.4.4,0,0,0,.1.3c0,.1,0,.1-.1.1a.1.1,0,0,0,.1-.1C91.5,7.3,91.3,7.2,91.3,7.1Z" transform="translate(0 0)" style="fill: #3a302e"/>
          <path d="M91.6,7.9h0c.1-.1,0-.1,0-.2h0a.3.3,0,0,0-.1.2Z" transform="translate(0 0)" style="fill: #3a302e"/>
          <path d="M91.5,8h0Z" transform="translate(0 0)" style="fill: #3a302e"/>
          <path d="M91.7,6.8a1.3,1.3,0,0,0,.1-.6h.1V5.9h0c0-.1,0-.1.1-.1h-.1c-.1,0,.1.1,0,.1s-.1-.1,0-.1H92a.1.1,0,0,1,.1-.1c0,.1,0,.1-.1.1h0V5.4a10.5,10.5,0,0,0,.4-1.7,2,2,0,0,1,.4-.8c.2-.6.1-1.2.6-1.7s.1-.6.2-.9-.8-.2-.8-.2-.3.2-.7.6.3.2-.1.4-.2.8-.4,1.2a.4.4,0,0,0-.1.3,6.9,6.9,0,0,0-.3,2,.4.4,0,0,0,.1.5c0,.1-.1.2-.1.3v0c0-.1.2.1.2.2h-.1v.2h-.1c0,.1.1.2.1.3h-.1c.1.1.1.3.2.4h0V6.6h0a.3.3,0,0,1-.1.2h0A.1.1,0,0,1,91.7,6.8Z" transform="translate(0 0)" style="fill: #3a302e"/>
          <path d="M91.9,6Z" transform="translate(0 0)" style="fill: #3a302e"/>
        </g>
      </g>
      <g style="opacity: 0.85">
        <g>
          <path d="M97.8,18.6h.1A.1.1,0,0,1,97.8,18.6Z" transform="translate(0 0)" style="fill: #3a302e"/>
          <path d="M98,18.6Z" transform="translate(0 0)" style="fill: #3a302e"/>
          <path d="M98.1,18.7h0Z" transform="translate(0 0)" style="fill: #3a302e"/>
          <path d="M98,18.6Z" transform="translate(0 0)" style="fill: #3a302e"/>
          <path d="M98,18.6h0Z" transform="translate(0 0)" style="fill: #3a302e"/>
          <path d="M98.2,18.1h.2c.1,0,.1.2.1.1H98C98,18.3,98.1,18.1,98.2,18.1Z" transform="translate(0 0)" style="fill: #3a302e"/>
          <path d="M97.3,18.3h.2c0-.1-.1-.1-.2-.1Z" transform="translate(0 0)" style="fill: #3a302e"/>
          <path d="M97.3,18.2Z" transform="translate(0 0)" style="fill: #3a302e"/>
          <path d="M98.5,18.6l.5.2h.3a.1.1,0,0,1,.1.1h.3c0-.1-.1.1-.1,0s.1-.1.1,0h.1c0,.1-.1,0-.1-.1h.1l1.5.7.8.5c.5.4,1.1.4,1.5.9a1.3,1.3,0,0,0,.8.3c.4-.1.4-.7.4-.7s-.2-.3-.4-.7-.3.2-.4-.2-.8-.4-1.1-.6l-.4-.2a5.5,5.5,0,0,0-1.8-.6c-.2-.1-.4,0-.6,0l-.3-.2h0c.1.1-.1.2-.2.2h-.3s.1-.1,0-.1h-.2a.1.1,0,0,1-.1-.1h-.6c.1,0,.2,0,.2.1h0a.1.1,0,0,1-.1-.1h0Z" transform="translate(0 0)" style="fill: #3a302e"/>
          <path d="M99.2,18.9h.1A.1.1,0,0,0,99.2,18.9Z" transform="translate(0 0)" style="fill: #3a302e"/>
        </g>
      </g>
      <g style="opacity: 0.85">
        <g>
          <path d="M96.4,21h0Z" transform="translate(0 0)" style="fill: #3a302e"/>
          <path d="M96.5,21.2Z" transform="translate(0 0)" style="fill: #3a302e"/>
          <path d="M96.6,21.2Z" transform="translate(0 0)" style="fill: #3a302e"/>
          <path d="M96.6,21.1h0Z" transform="translate(0 0)" style="fill: #3a302e"/>
          <path d="M96.6,21.1Z" transform="translate(0 0)" style="fill: #3a302e"/>
          <path d="M96.9,20.8s-.1.1,0,.1h.2s-.1.2,0,.1.3,0,.2,0l-.3-.2h-.4v.2S96.8,20.7,96.9,20.8Z" transform="translate(0 0)" style="fill: #3a302e"/>
          <path d="M96,20.6h.1c0-.1,0-.2-.1-.2Z" transform="translate(0 0)" style="fill: #3a302e"/>
          <path d="M96,20.5Z" transform="translate(0 0)" style="fill: #3a302e"/>
          <path d="M96.9,21.3l.4.4H98c0-.1-.2,0-.1-.1s.1,0,.1.1h0c-.1,0-.1,0,0-.1h-.2l.2.2a6.3,6.3,0,0,0,1.1,1.2,1.9,1.9,0,0,1,.6.7,8.1,8.1,0,0,1,1.2,1.4,1.7,1.7,0,0,0,.6.6c.4,0,.6-.5.7-.6s-.2-.3-.3-.8-.3.1-.3-.3-.5-.6-.8-1l-.2-.2c-.4-.6-1.1-.8-1.6-1.3l-.5-.2c-.1,0-.1-.2-.2-.2l-.4-.2.4.2c.1.1-.2.1-.3.1s.1-.2,0-.2h-.2s.1-.1,0-.1-.2.1-.2,0h-.2c0,.1,0,.1-.1.1h0c.1,0,.1,0,.1-.1H97c0,.1.1.1.1.2h0c-.1-.1-.1-.1-.1-.2h-.1Z" transform="translate(0 0)" style="fill: #3a302e"/>
          <path d="M97.5,21.8Z" transform="translate(0 0)" style="fill: #3a302e"/>
        </g>
      </g>
      <g style="opacity: 0.85">
        <g>
          <path d="M94.2,22.9Z" transform="translate(0 0)" style="fill: #3a302e"/>
          <path d="M94.2,23Z" transform="translate(0 0)" style="fill: #3a302e"/>
          <path d="M94.3,23.1Z" transform="translate(0 0)" style="fill: #3a302e"/>
          <path d="M94.3,23h-.1c.1,0,.1,0,.1.1Z" transform="translate(0 0)" style="fill: #3a302e"/>
          <path d="M94.3,23Z" transform="translate(0 0)" style="fill: #3a302e"/>
          <path d="M94.7,22.8s-.1.1,0,.1a.1.1,0,0,1,.1.1c.1,0,0,.1,0,.1h.3l-.3-.3-.3-.2h0C94.5,22.8,94.7,22.7,94.7,22.8Z" transform="translate(0 0)" style="fill: #3a302e"/>
          <path d="M93.9,22.3H94c-.1.1,0,.2.1.2h0a.1.1,0,0,0-.1.1c.1-.1,0-.2,0-.3A.1.1,0,0,1,93.9,22.3Z" transform="translate(0 0)" style="fill: #3a302e"/>
          <path d="M94,22.2Z" transform="translate(0 0)" style="fill: #3a302e"/>
          <path d="M94.6,23.3c.1.2.2.3.2.5H95a.1.1,0,0,1-.1-.1h0c0,.1.1.1.1.2h0s.1.1,0,.1h.3c.1-.1-.1,0,0-.1s.1,0,0,.1h-.1a.1.1,0,0,1,.1.1c-.1,0-.1,0-.1-.1h-.1c0,.1.1.1.1.2s.5,1,.7,1.5l.3.9c.2.6.6,1,.6,1.7s.3.6.4.8a1,1,0,0,0,.8-.3c.3-.4,0-.4.1-.9s-.4,0-.2-.4-.3-.8-.4-1.2l-.2-.3a9.5,9.5,0,0,0-1-1.7c-.1-.2-.3-.3-.4-.4s-.1-.2-.1-.3l-.3-.3c.1.2.2.2.2.3s-.1.1-.2,0,.1-.1,0-.1h-.4l-.4-.3h0a.1.1,0,0,1,0,.2h0a.1.1,0,0,1,0-.2h-.1Z" transform="translate(0 0)" style="fill: #3a302e"/>
          <path d="M95,24c-.1,0-.1,0-.1-.1s.1.1.1.2Z" transform="translate(0 0)" style="fill: #3a302e"/>
        </g>
      </g>
      <g style="opacity: 0.85">
        <g>
          <path d="M91.4,23.8h0Z" transform="translate(0 0)" style="fill: #3a302e"/>
          <path d="M91.5,24Z" transform="translate(0 0)" style="fill: #3a302e"/>
          <path d="M91.5,24.1h0Z" transform="translate(0 0)" style="fill: #3a302e"/>
          <path d="M91.5,24Z" transform="translate(0 0)" style="fill: #3a302e"/>
          <path d="M91.5,24h0Z" transform="translate(0 0)" style="fill: #3a302e"/>
          <path d="M92,23.9h-.1v.2c.1,0-.1,0,0,.1s.2.2.2.1-.1-.3-.1-.4l-.3-.3h0v.2Z" transform="translate(0 0)" style="fill: #3a302e"/>
          <path d="M91.4,23.2h.1c-.1.1-.1.2,0,.2h0v-.2Z" transform="translate(0 0)" style="fill: #3a302e"/>
          <path d="M91.5,23.1h0Z" transform="translate(0 0)" style="fill: #3a302e"/>
          <path d="M91.7,24.4a.9.9,0,0,0,.1.5h0c.1,0,.1,0,.1-.1s0,.1-.1.1h0s.1.1,0,.1h0v.2H92c.1,0-.1,0,0-.1s.1.1,0,.1h-.1v.2c-.1-.1-.1-.1,0-.2h-.1v.2a9.9,9.9,0,0,0,.2,1.7v.9c-.1.6.2,1.1-.1,1.8a2.9,2.9,0,0,0,.2.9c.2.2.8,0,.8-.1s.2-.3.4-.7-.4-.2-.1-.5,0-.8,0-1.2,0-.3,0-.4-.3-1.2-.3-1.9l-.3-.5c-.1-.1,0-.2,0-.3s-.1-.3-.2-.4.1.2.1.4h-.2c0-.1.1-.1.1-.2h-.1c0-.1-.2-.1-.2-.2h0l-.3-.3h0c.1,0,.1.1,0,.2h0a.1.1,0,0,1,0-.2h0A.3.3,0,0,1,91.7,24.4Z" transform="translate(0 0)" style="fill: #3a302e"/>
          <path d="M91.8,25.1h0C91.9,25.2,91.8,25.2,91.8,25.1Z" transform="translate(0 0)" style="fill: #3a302e"/>
        </g>
      </g>
    </g>
  </g>
</svg>
